<svg width="55" height="55" viewBox="0 0 55 55" fill="none" xmlns="http://www.w3.org/2000/svg">
<circle cx="27.5" cy="27.5" r="27.5" fill="#434248"/>
<circle cx="9" cy="46" r="5" fill="#52DD79" stroke="#DADADB" stroke-width="2"/>
<path fill-rule="evenodd" clip-rule="evenodd" d="M26.0276 37.8975C26.8838 37.8975 27.5797 38.5934 27.5797 39.4496C27.5797 40.3059 26.8838 40.9998 26.0276 40.9998C25.1713 40.9998 24.4774 40.3059 24.4774 39.4496C24.4774 38.5934 25.1713 37.8975 26.0276 37.8975Z" fill="white"/>
<path fill-rule="evenodd" clip-rule="evenodd" d="M34.34 37.8977C35.1962 37.8977 35.8922 38.5936 35.8922 39.4499C35.8922 40.3061 35.1962 41 34.34 41C33.4838 41 32.7878 40.3061 32.7878 39.4499C32.7878 38.5936 33.4838 37.8977 34.34 37.8977Z" fill="white"/>
<path d="M12 18.7405H17.8599C18.5028 18.7405 19.0716 19.1574 19.2652 19.7705L23.3009 32.5501C23.4945 33.1632 24.0632 33.58 24.7061 33.58H37.1837C37.8483 33.58 38.4306 33.1352 38.6055 32.4941L41.5506 21.6954C41.8063 20.7579 41.1005 19.834 40.1288 19.834H24.6861" stroke="white" stroke-width="2" stroke-linecap="round" stroke-linejoin="round"/>
</svg>
