<svg width="33" height="24" viewBox="0 0 33 24" fill="none" xmlns="http://www.w3.org/2000/svg">
<path fill-rule="evenodd" clip-rule="evenodd" d="M15.4938 20.7943C16.3785 20.7943 17.0976 21.5133 17.0976 22.3981C17.0976 23.2828 16.3785 23.9998 15.4938 23.9998C14.6091 23.9998 13.8921 23.2828 13.8921 22.3981C13.8921 21.5133 14.6091 20.7943 15.4938 20.7943Z" fill="white"/>
<path fill-rule="evenodd" clip-rule="evenodd" d="M24.0819 20.7945C24.9666 20.7945 25.6857 21.5136 25.6857 22.3983C25.6857 23.283 24.9666 24 24.0819 24C23.1972 24 22.4781 23.283 22.4781 22.3983C22.4781 21.5136 23.1972 20.7945 24.0819 20.7945Z" fill="white"/>
<path d="M1 1H7.09079C7.73373 1 8.30246 1.41682 8.49607 2.02991L12.6876 15.3032C12.8813 15.9163 13.45 16.3331 14.0929 16.3331H27.059C27.7236 16.3331 28.3059 15.8883 28.4808 15.2472L31.5506 3.99124C31.8063 3.05378 31.1005 2.12981 30.1288 2.12981H16.1751C15.1628 2.12981 14.4519 3.12692 14.7819 4.0839L17.3361 11.4911" stroke="white" stroke-width="2" stroke-linecap="round" stroke-linejoin="round"/>
</svg>
