<svg width="45" height="45" viewBox="0 0 45 45" fill="none" xmlns="http://www.w3.org/2000/svg">
<path d="M3.75 41.25H41.25" stroke="#434248" stroke-width="3" stroke-linecap="round" stroke-linejoin="round"/>
<path d="M5.8291 41.25V24.375C5.8291 21.2625 8.62285 18.75 12.0729 18.75H32.9041C36.3541 18.75 39.1479 21.2625 39.1479 24.375V41.25" stroke="#434248" stroke-width="3" stroke-linecap="round" stroke-linejoin="round"/>
<path d="M10.4219 18.75V13.4438C10.4219 11.1938 12.4469 9.375 14.9594 9.375H30.0531C32.5469 9.375 34.5719 11.1938 34.5719 13.4438V18.75" stroke="#434248" stroke-width="3" stroke-linecap="round" stroke-linejoin="round"/>
<path d="M6.62109 26.2129L7.31484 26.2316C8.70234 26.2504 9.80859 27.3754 9.80859 28.7629V29.3816C9.80859 30.7691 10.9336 31.9129 12.3398 31.9129C13.7273 31.9129 14.8711 30.7879 14.8711 29.3816V28.8004C14.8711 27.4129 15.9961 26.2691 17.4023 26.2691C18.7898 26.2691 19.9336 27.3941 19.9336 28.8004V29.3816C19.9336 30.7691 21.0586 31.9129 22.4648 31.9129C23.8523 31.9129 24.9961 30.7879 24.9961 29.3816V28.8004C24.9961 27.4129 26.1211 26.2691 27.5273 26.2691C28.9148 26.2691 30.0586 27.3941 30.0586 28.8004V29.3816C30.0586 30.7691 31.1836 31.9129 32.5898 31.9129C33.9773 31.9129 35.1211 30.7879 35.1211 29.3816V28.8004C35.1211 27.4129 36.2461 26.2691 37.6523 26.2691H38.4961" stroke="#434248" stroke-width="3" stroke-linecap="round" stroke-linejoin="round"/>
<path d="M15 9.375V5.625" stroke="#434248" stroke-width="3" stroke-linecap="round" stroke-linejoin="round"/>
<path d="M30 9.375V5.625" stroke="#434248" stroke-width="3" stroke-linecap="round" stroke-linejoin="round"/>
<path d="M22.5 9.375V3.75" stroke="#434248" stroke-width="3" stroke-linecap="round" stroke-linejoin="round"/>
</svg>
