<svg width="44" height="43" viewBox="0 0 44 43" fill="none" xmlns="http://www.w3.org/2000/svg">
<path d="M21.8664 3.84375C11.5984 3.84375 3.23438 12.2078 3.23438 22.4757C3.23438 32.7437 11.5984 41.1077 21.8664 41.1077C32.1344 41.1077 40.4984 32.7437 40.4984 22.4757C40.4984 12.2078 32.1344 3.84375 21.8664 3.84375ZM21.8664 37.7077C13.5024 37.7077 6.63438 30.9077 6.63438 22.4757C6.63438 14.1118 13.4344 7.24375 21.8664 7.24375C30.2304 7.24375 37.0984 14.0438 37.0984 22.4757C37.0984 30.9077 30.2984 37.7077 21.8664 37.7077Z" fill="#434248"/>
<path d="M23.5636 21.7962V14.8602C23.5636 13.9082 22.8156 13.1602 21.8636 13.1602C20.9116 13.1602 20.1636 13.9082 20.1636 14.8602V22.4762C20.1636 22.9522 20.3676 23.3602 20.6396 23.7002L27.0996 30.1602C27.4396 30.5002 27.8476 30.6362 28.3236 30.6362C28.7996 30.6362 29.2076 30.5002 29.5476 30.1602C30.2276 29.4802 30.2276 28.3922 29.5476 27.7802L23.5636 21.7962Z" fill="#434248"/>
<path d="M36.2125 42.3996C37.527 42.3996 38.5925 41.3341 38.5925 40.0196C38.5925 38.7052 37.527 37.6396 36.2125 37.6396C34.8981 37.6396 33.8325 38.7052 33.8325 40.0196C33.8325 41.3341 34.8981 42.3996 36.2125 42.3996Z" fill="#434248"/>
<path d="M7.58361 42.3996C8.89805 42.3996 9.96361 41.3341 9.96361 40.0196C9.96361 38.7052 8.89805 37.6396 7.58361 37.6396C6.26918 37.6396 5.20361 38.7052 5.20361 40.0196C5.20361 41.3341 6.26918 42.3996 7.58361 42.3996Z" fill="#434248"/>
<path d="M10.8476 4.11656C11.6636 3.64056 11.9356 2.55256 11.3916 1.80456C10.9156 0.98856 9.82758 0.71656 9.07958 1.26056C5.40758 3.50456 2.34758 6.63256 0.239577 10.3726C-0.236423 11.1886 0.0355772 12.2086 0.919577 12.6846C1.19158 12.8206 1.46358 12.8886 1.73558 12.8886C2.34758 12.8886 2.89158 12.5486 3.23158 12.0046C4.99958 8.80856 7.65158 6.08856 10.8476 4.11656Z" fill="#434248"/>
<path d="M43.4867 10.3039C41.3787 6.56388 38.3187 3.43588 34.6467 1.19188C33.8307 0.715884 32.8107 0.987885 32.3347 1.73588C31.8587 2.55188 32.1307 3.57188 32.8787 4.04788C36.0747 5.95189 38.6587 8.67189 40.4947 11.9359C40.8347 12.4799 41.3787 12.8199 41.9907 12.8199C42.2627 12.8199 42.5347 12.7519 42.8067 12.6159C43.6907 12.2079 43.9627 11.1199 43.4867 10.3039Z" fill="#434248"/>
</svg>
