<svg width="42" height="37" viewBox="0 0 42 37" fill="none" xmlns="http://www.w3.org/2000/svg">
<path d="M41.3563 15.5152L22.1068 0.379141C21.7944 0.133935 21.4034 0 21 0C20.5966 0 20.2056 0.133935 19.8932 0.379141L0.643703 15.5152C0.465603 15.6549 0.317876 15.8269 0.208957 16.0215C0.100038 16.216 0.0320594 16.4293 0.00890347 16.6491C-0.0142525 16.8689 0.00786716 17.091 0.0739996 17.3026C0.140132 17.5142 0.248982 17.7112 0.394335 17.8823C0.539688 18.0535 0.718697 18.1954 0.921141 18.3001C1.12359 18.4048 1.3455 18.4701 1.57422 18.4924C1.80293 18.5146 2.03397 18.4934 2.25414 18.4298C2.4743 18.3663 2.67929 18.2617 2.85739 18.122L5.25045 16.2384V31.9546C5.25045 33.2928 5.80356 34.5761 6.78809 35.5223C7.77263 36.4684 9.10795 37 10.5003 37H31.4997C32.8921 37 34.2274 36.4684 35.2119 35.5223C36.1964 34.5761 36.7496 33.2928 36.7496 31.9546V16.2384L39.1426 18.122C39.3207 18.2617 39.5257 18.3663 39.7459 18.4298C39.966 18.4934 40.1971 18.5146 40.4258 18.4924C40.6545 18.4701 40.8764 18.4048 41.0789 18.3001C41.2813 18.1954 41.4603 18.0535 41.6057 17.8823C41.751 17.7112 41.8599 17.5142 41.926 17.3026C41.9921 17.091 42.0143 16.8689 41.9911 16.6491C41.9679 16.4293 41.9 16.216 41.791 16.0215C41.6821 15.8269 41.5344 15.6549 41.3563 15.5152ZM17.5001 33.6364V25.2275C17.5001 24.7815 17.6845 24.3537 18.0126 24.0383C18.3408 23.7229 18.7859 23.5457 19.25 23.5457H22.75C23.2141 23.5457 23.6592 23.7229 23.9874 24.0383C24.3155 24.3537 24.4999 24.7815 24.4999 25.2275V33.6364H17.5001ZM33.2497 31.9546C33.2497 32.4007 33.0653 32.8285 32.7371 33.1438C32.4089 33.4592 31.9638 33.6364 31.4997 33.6364H27.9998V25.2275C27.9998 23.8894 27.4467 22.6061 26.4622 21.6599C25.4776 20.7137 24.1423 20.1822 22.75 20.1822H19.25C17.8577 20.1822 16.5224 20.7137 15.5378 21.6599C14.5533 22.6061 14.0002 23.8894 14.0002 25.2275V33.6364H10.5003C10.0362 33.6364 9.59108 33.4592 9.2629 33.1438C8.93472 32.8285 8.75035 32.4007 8.75035 31.9546V13.4887L21 3.85623L33.2497 13.4887V31.9546Z" fill="#434248"/>
</svg>
