<svg width="30" height="30" viewBox="0 0 30 30" fill="none" xmlns="http://www.w3.org/2000/svg">
<path d="M19.4739 14.9999C19.4739 17.4749 17.4739 19.4749 14.9989 19.4749C12.5239 19.4749 10.5239 17.4749 10.5239 14.9999C10.5239 12.5249 12.5239 10.5249 14.9989 10.5249C17.4739 10.5249 19.4739 12.5249 19.4739 14.9999Z" stroke="white" stroke-width="2" stroke-linecap="round" stroke-linejoin="round"/>
<path d="M14.9998 25.3379C19.4123 25.3379 23.5248 22.7379 26.3873 18.2379C27.5123 16.4754 27.5123 13.5129 26.3873 11.7504C23.5248 7.25036 19.4123 4.65036 14.9998 4.65036C10.5873 4.65036 6.4748 7.25036 3.6123 11.7504C2.4873 13.5129 2.4873 16.4754 3.6123 18.2379C6.4748 22.7379 10.5873 25.3379 14.9998 25.3379Z" stroke="white" stroke-width="2" stroke-linecap="round" stroke-linejoin="round"/>
</svg>
