<svg width="58" height="63" viewBox="0 0 58 63" fill="none" xmlns="http://www.w3.org/2000/svg">
<rect width="40" height="63" rx="5" fill="#6EEC91"/>
<path d="M42.7917 46.5419H23.2084C22.3334 46.5419 21.3542 45.8544 21.0625 45.021L12.4375 20.896C11.2084 17.4377 12.6459 16.3752 15.6042 18.5002L23.7292 24.3127C25.0834 25.2502 26.625 24.771 27.2084 23.2502L30.875 13.4794C32.0417 10.3544 33.9792 10.3544 35.1459 13.4794L38.8126 23.2502C39.3959 24.771 40.9376 25.2502 42.2709 24.3127L49.8959 18.8752C53.1459 16.5419 54.7084 17.7294 53.3751 21.5002L44.9584 45.0627C44.6459 45.8544 43.6667 46.5419 42.7917 46.5419Z" stroke="#434248" stroke-width="3" stroke-linecap="round" stroke-linejoin="round"/>
<path d="M21.5417 52.8334H44.4584" stroke="#434248" stroke-width="3" stroke-linecap="round" stroke-linejoin="round"/>
<path d="M27.7917 36.1666H38.2084" stroke="#434248" stroke-width="3" stroke-linecap="round" stroke-linejoin="round"/>
</svg>
