<svg width="58" height="63" viewBox="0 0 58 63" fill="none" xmlns="http://www.w3.org/2000/svg">
<rect width="40" height="63" rx="5" fill="#6EEC91"/>
<path d="M12.1666 52.8333H53.8333" stroke="#434248" stroke-width="3" stroke-linecap="round" stroke-linejoin="round"/>
<path d="M14.4791 52.8333V34.0833C14.4791 30.6249 17.5833 27.8333 21.4166 27.8333H44.5625C48.3958 27.8333 51.5 30.6249 51.5 34.0833V52.8333" stroke="#434248" stroke-width="3" stroke-linecap="round" stroke-linejoin="round"/>
<path d="M19.5835 27.8334V21.9376C19.5835 19.4376 21.8335 17.4167 24.6252 17.4167H41.396C44.1668 17.4167 46.4168 19.4376 46.4168 21.9376V27.8334" stroke="#434248" stroke-width="3" stroke-linecap="round" stroke-linejoin="round"/>
<path d="M15.3542 36.125L16.1251 36.1458C17.6667 36.1667 18.8959 37.4167 18.8959 38.9583V39.6458C18.8959 41.1875 20.1459 42.4583 21.7084 42.4583C23.2501 42.4583 24.5209 41.2083 24.5209 39.6458V39C24.5209 37.4583 25.7709 36.1875 27.3334 36.1875C28.8751 36.1875 30.1459 37.4375 30.1459 39V39.6458C30.1459 41.1875 31.3959 42.4583 32.9584 42.4583C34.5001 42.4583 35.7709 41.2083 35.7709 39.6458V39C35.7709 37.4583 37.0209 36.1875 38.5834 36.1875C40.1251 36.1875 41.3959 37.4375 41.3959 39V39.6458C41.3959 41.1875 42.6459 42.4583 44.2084 42.4583C45.7501 42.4583 47.0209 41.2083 47.0209 39.6458V39C47.0209 37.4583 48.2709 36.1875 49.8334 36.1875H50.7709" stroke="#434248" stroke-width="3" stroke-linecap="round" stroke-linejoin="round"/>
<path d="M24.6666 17.4167V13.25" stroke="#434248" stroke-width="3" stroke-linecap="round" stroke-linejoin="round"/>
<path d="M41.3334 17.4167V13.25" stroke="#434248" stroke-width="3" stroke-linecap="round" stroke-linejoin="round"/>
<path d="M33 17.4167V11.1667" stroke="#434248" stroke-width="3" stroke-linecap="round" stroke-linejoin="round"/>
</svg>
