<svg width="58" height="63" viewBox="0 0 58 63" fill="none" xmlns="http://www.w3.org/2000/svg">
<rect width="40" height="63" rx="5" fill="#6EEC91"/>
<path d="M27.0835 29.6458C26.8751 29.625 26.6251 29.625 26.396 29.6458C21.4376 29.4791 17.5001 25.4166 17.5001 20.4166C17.5001 15.3125 21.6251 11.1666 26.7501 11.1666C31.8543 11.1666 36.0001 15.3125 36.0001 20.4166C35.9793 25.4166 32.0418 29.4791 27.0835 29.6458Z" stroke="#434248" stroke-width="3" stroke-linecap="round" stroke-linejoin="round"/>
<path d="M42.1876 15.3334C46.2292 15.3334 49.4792 18.6042 49.4792 22.625C49.4792 26.5625 46.3542 29.7709 42.4584 29.9167C42.2917 29.8959 42.1042 29.8959 41.9167 29.9167" stroke="#434248" stroke-width="3" stroke-linecap="round" stroke-linejoin="round"/>
<path d="M16.6666 37.3334C11.625 40.7084 11.625 46.2084 16.6666 49.5625C22.3958 53.3959 31.7916 53.3959 37.5208 49.5625C42.5625 46.1875 42.5625 40.6875 37.5208 37.3334C31.8125 33.5209 22.4166 33.5209 16.6666 37.3334Z" stroke="#434248" stroke-width="3" stroke-linecap="round" stroke-linejoin="round"/>
<path d="M46.2083 48.6666C47.7083 48.3541 49.1249 47.75 50.2916 46.8541C53.5416 44.4166 53.5416 40.3958 50.2916 37.9583C49.1457 37.0833 47.7499 36.5 46.2708 36.1666" stroke="#434248" stroke-width="3" stroke-linecap="round" stroke-linejoin="round"/>
</svg>
