<svg width="17" height="22" viewBox="0 0 17 22" fill="none" xmlns="http://www.w3.org/2000/svg">
<path d="M8.50001 0.999877C4.37001 0.999877 1.00001 4.36988 1.00001 8.49988L1.00001 13.4999C1.00001 17.6299 4.37001 20.9999 8.50001 20.9999C12.63 20.9999 16 17.6299 16 13.4999L16 8.49988C16 4.36988 12.63 0.999878 8.50001 0.999877Z" stroke="#434248" stroke-linecap="round" stroke-linejoin="round"/>
<path d="M8.50001 11.9999C9.33001 11.9999 10 12.6699 10 13.4999L10 15.4999C10 16.3299 9.33001 16.9999 8.50001 16.9999C7.68001 16.9999 7.00001 16.3299 7.00001 15.4999L7.00001 13.4999C7.00001 12.6699 7.68001 11.9999 8.50001 11.9999Z" stroke="#434248" stroke-linecap="round" stroke-linejoin="round"/>
<path d="M8.50001 16.9999L8.50001 20.9999" stroke="#434248" stroke-linecap="round" stroke-linejoin="round"/>
</svg>
