<svg width="60" height="63" viewBox="0 0 60 63" fill="none" xmlns="http://www.w3.org/2000/svg">
<rect x="0.000732422" width="40" height="63" rx="5" fill="#6EEC91"/>
<path d="M18.7512 32.6436H50.6262" stroke="#434248" stroke-width="2.5" stroke-miterlimit="10" stroke-linecap="round" stroke-linejoin="round"/>
<path d="M50.6262 28.275V41.6813C50.57 47.025 49.1074 48.375 43.5387 48.375H25.8388C20.1763 48.375 18.7512 46.9688 18.7512 41.3813V28.275C18.7512 23.2125 19.9325 21.5813 24.3762 21.3188C24.8262 21.3 25.3138 21.2812 25.8388 21.2812H43.5387C49.2012 21.2812 50.6262 22.6875 50.6262 28.275Z" stroke="#434248" stroke-width="2.5" stroke-linecap="round" stroke-linejoin="round"/>
<path d="M56.251 21.6187V34.725C56.251 39.7875 55.0697 41.4187 50.626 41.6812V28.275C50.626 22.6875 49.2009 21.2812 43.5384 21.2812H25.8385C25.3135 21.2812 24.826 21.3 24.376 21.3187C24.4322 15.975 25.8948 14.625 31.4635 14.625H49.1634C54.8259 14.625 56.251 16.0312 56.251 21.6187Z" stroke="#434248" stroke-width="2.5" stroke-linecap="round" stroke-linejoin="round"/>
<path d="M24.8447 42.3936H28.0697" stroke="#434248" stroke-width="2.5" stroke-miterlimit="10" stroke-linecap="round" stroke-linejoin="round"/>
<path d="M32.082 42.3936H38.532" stroke="#434248" stroke-width="2.5" stroke-miterlimit="10" stroke-linecap="round" stroke-linejoin="round"/>
</svg>
