<svg width="61" height="63" viewBox="0 0 61 63" fill="none" xmlns="http://www.w3.org/2000/svg">
<rect x="0.575195" width="40" height="63" rx="5" fill="#6EEC91"/>
<path d="M19.3252 27.75H56.8252" stroke="#434248" stroke-width="2.5" stroke-miterlimit="10" stroke-linecap="round" stroke-linejoin="round"/>
<path d="M37.2268 47.4373H27.6455C20.9893 47.4373 19.3018 45.7873 19.3018 39.2061V23.7936C19.3018 17.8311 20.6893 15.9186 25.9206 15.6186C26.4456 15.5998 27.0268 15.5811 27.6455 15.5811H48.4768C55.133 15.5811 56.8205 17.2311 56.8205 23.8123V32.0811" stroke="#434248" stroke-width="2.5" stroke-linecap="round" stroke-linejoin="round"/>
<path d="M26.8252 39H34.3252" stroke="#434248" stroke-width="2.5" stroke-miterlimit="10" stroke-linecap="round" stroke-linejoin="round"/>
<path d="M56.8252 42.75C56.8252 44.1562 56.4314 45.4875 55.7377 46.6125C54.4439 48.7875 52.0627 50.25 49.3252 50.25C46.5877 50.25 44.2065 48.7875 42.9127 46.6125C42.219 45.4875 41.8252 44.1562 41.8252 42.75C41.8252 38.6062 45.1814 35.25 49.3252 35.25C53.4689 35.25 56.8252 38.6062 56.8252 42.75Z" stroke="#434248" stroke-width="2.5" stroke-miterlimit="10" stroke-linecap="round" stroke-linejoin="round"/>
<path d="M46.4028 42.7496L48.2591 44.6059L52.2528 40.9121" stroke="#434248" stroke-width="2.5" stroke-linecap="round" stroke-linejoin="round"/>
</svg>
