<svg width="21" height="22" viewBox="0 0 21 22" fill="none" xmlns="http://www.w3.org/2000/svg">
<path d="M17.872 14.9203C16.6404 13.8869 15.3906 13.261 14.1742 14.2928L13.4478 14.9164C12.9164 15.3691 11.9283 17.4842 8.10792 13.1728C4.28839 8.86675 6.56133 8.19631 7.09357 7.74752L7.82391 7.12312C9.03397 6.08896 8.57731 4.78709 7.70457 3.44698L7.1779 2.63526C6.30118 1.29826 5.3465 0.420203 4.13325 1.4528L3.4777 2.01476C2.94149 2.39799 1.44263 3.64366 1.07905 6.01013C0.64149 8.84958 2.02181 12.1011 5.1842 15.6688C8.34262 19.238 11.435 21.0308 14.3643 20.9996C16.7987 20.9738 18.269 19.6923 18.7288 19.2263L19.3867 18.6636C20.5968 17.6317 19.845 16.5812 18.6126 15.5455L17.872 14.9203Z" stroke="#434248" stroke-width="1.5"/>
</svg>
