<svg width="19" height="22" viewBox="0 0 19 22" fill="none" xmlns="http://www.w3.org/2000/svg">
<path d="M1.2393 7.3976L0.751755 7.2867L0.751639 7.28721L1.2393 7.3976ZM17.7607 7.40746L17.273 7.51783L17.273 7.51786L17.7607 7.40746ZM5.94139 19.276L5.59442 19.6361L5.59505 19.6367L5.94139 19.276ZM13.0487 19.276L12.7024 18.9154L12.7015 18.9163L13.0487 19.276ZM1.72684 7.50851C2.63654 3.50956 6.04518 1.49766 9.50335 1.5C12.9616 1.50234 16.368 3.51891 17.273 7.51783L18.2484 7.29709C17.2213 2.7593 13.338 0.502594 9.50403 0.500002C5.67001 0.497411 1.78402 2.74894 0.751755 7.2867L1.72684 7.50851ZM6.28836 18.916C3.59282 16.3182 0.655135 12.2427 1.72696 7.508L0.751639 7.28721C-0.44379 12.5679 2.84854 16.9897 5.59442 19.6361L6.28836 18.916ZM12.7015 18.9163C10.9143 20.6412 8.08595 20.6424 6.28773 18.9154L5.59505 19.6367C7.77931 21.7344 11.2204 21.7356 13.396 19.6358L12.7015 18.9163ZM17.273 7.51786C18.3448 12.2521 15.4076 16.3176 12.7024 18.9154L13.3951 19.6367C16.151 16.9902 19.4439 12.5782 18.2483 7.29707L17.273 7.51786ZM9.64222 12.522C11.617 12.522 13.2178 10.9212 13.2178 8.94641H12.2178C12.2178 10.3689 11.0647 11.522 9.64222 11.522V12.522ZM6.06664 8.94641C6.06664 10.9212 7.66748 12.522 9.64222 12.522V11.522C8.21976 11.522 7.06664 10.3689 7.06664 8.94641H6.06664ZM9.64222 5.37083C7.66748 5.37083 6.06664 6.97168 6.06664 8.94641H7.06664C7.06664 7.52396 8.21976 6.37083 9.64222 6.37083V5.37083ZM13.2178 8.94641C13.2178 6.97168 11.617 5.37083 9.64222 5.37083V6.37083C11.0647 6.37083 12.2178 7.52396 12.2178 8.94641H13.2178Z" fill="#434248"/>
</svg>
