<svg width="35" height="35" viewBox="0 0 35 35" fill="none" xmlns="http://www.w3.org/2000/svg">
<path d="M13.3568 15.8514C13.2109 15.8368 13.0359 15.8368 12.8755 15.8514C9.40469 15.7348 6.64844 12.891 6.64844 9.39102C6.64844 5.8181 9.53594 2.91602 13.1234 2.91602C16.6964 2.91602 19.5984 5.8181 19.5984 9.39102C19.5839 12.891 16.8276 15.7348 13.3568 15.8514Z" stroke="#434248" stroke-width="2" stroke-linecap="round" stroke-linejoin="round"/>
<path d="M23.9357 5.83398C26.7648 5.83398 29.0398 8.12357 29.0398 10.9382C29.0398 13.6944 26.8523 15.9402 24.1253 16.0423C24.0086 16.0277 23.8773 16.0277 23.7461 16.0423" stroke="#434248" stroke-width="2" stroke-linecap="round" stroke-linejoin="round"/>
<path d="M6.06484 21.234C2.53568 23.5965 2.53568 27.4465 6.06484 29.7944C10.0753 32.4777 16.6523 32.4777 20.6628 29.7944C24.1919 27.4319 24.1919 23.5819 20.6628 21.234C16.6669 18.5652 10.0898 18.5652 6.06484 21.234Z" stroke="#434248" stroke-width="2" stroke-linecap="round" stroke-linejoin="round"/>
<path d="M26.7461 29.166C27.7961 28.9473 28.7878 28.5243 29.6044 27.8973C31.8794 26.191 31.8794 23.3764 29.6044 21.6702C28.8023 21.0577 27.8253 20.6493 26.7898 20.416" stroke="#434248" stroke-width="2" stroke-linecap="round" stroke-linejoin="round"/>
</svg>
