<svg width="224" height="95" viewBox="0 0 224 95" fill="none" xmlns="http://www.w3.org/2000/svg">
<path d="M138.202 12.2543C141.318 12.2543 143.852 14.7894 143.852 17.9052C143.852 21.021 141.317 23.5561 138.202 23.5561C135.086 23.5561 132.552 21.021 132.552 17.9052C132.552 14.7894 135.086 12.2543 138.202 12.2543ZM138.202 10.9175C134.343 10.9175 131.215 14.0461 131.215 17.9052C131.215 21.7643 134.343 24.8929 138.202 24.8929C142.061 24.8929 145.189 21.7643 145.189 17.9052C145.189 14.0461 142.061 10.9175 138.202 10.9175Z" fill="#98C11D"/>
<path d="M136.448 14.6528H139.952V15.3571H137.288V17.5189H139.749V18.2141H137.288V21.1577H136.448V14.6528Z" fill="#434248"/>
<path d="M169.669 12.2543C172.785 12.2543 175.319 14.7894 175.319 17.9052C175.319 21.021 172.784 23.5561 169.669 23.5561C166.554 23.5561 164.019 21.021 164.019 17.9052C164.019 14.7894 166.553 12.2543 169.669 12.2543ZM169.669 10.9175C165.81 10.9175 162.682 14.0461 162.682 17.9052C162.682 21.7643 165.811 24.8929 169.669 24.8929C173.528 24.8929 176.656 21.7643 176.656 17.9052C176.656 14.0461 173.528 10.9175 169.669 10.9175Z" fill="#98C11D"/>
<path d="M172.006 18.3002C171.957 17.3934 171.899 16.3025 171.909 15.4919H171.88C171.658 16.2544 171.388 17.065 171.059 17.9623L169.911 21.1182H169.274L168.222 18.02C167.913 17.103 167.652 16.264 167.47 15.4914H167.45C167.431 16.302 167.383 17.3928 167.325 18.3676L167.151 21.1567H166.35L166.804 14.6519H167.875L168.985 17.7981C169.256 18.5991 169.477 19.3135 169.641 19.9889H169.67C169.834 19.3328 170.066 18.6184 170.355 17.7981L171.513 14.6519H172.584L172.989 21.1567H172.169L172.006 18.3002Z" fill="#434248"/>
<path d="M153.936 12.2543C157.051 12.2543 159.586 14.7894 159.586 17.9052C159.586 21.021 157.051 23.5561 153.936 23.5561C150.82 23.5561 148.285 21.021 148.285 17.9052C148.285 14.7894 150.82 12.2543 153.936 12.2543ZM153.936 10.9175C150.076 10.9175 146.948 14.0461 146.948 17.9052C146.948 21.7643 150.076 24.8929 153.936 24.8929C157.795 24.8929 160.923 21.7643 160.923 17.9052C160.923 14.0461 157.795 10.9175 153.936 10.9175Z" fill="#98C11D"/>
<path d="M152.759 19.1109L152.083 21.1567H151.214L153.424 14.6519H154.438L156.657 21.1567H155.76L155.065 19.1109H152.759ZM154.892 18.4548L154.255 16.5822C154.11 16.1576 154.014 15.7716 153.917 15.3951H153.898C153.801 15.7812 153.695 16.1769 153.57 16.5726L152.933 18.4542H154.892V18.4548Z" fill="#434248"/>
<path d="M185.402 12.2543C188.518 12.2543 191.053 14.7894 191.053 17.9052C191.053 21.021 188.518 23.5561 185.402 23.5561C182.287 23.5561 179.752 21.021 179.752 17.9052C179.752 14.7894 182.287 12.2543 185.402 12.2543ZM185.402 10.9175C181.543 10.9175 178.415 14.0461 178.415 17.9052C178.415 21.7643 181.543 24.8929 185.402 24.8929C189.262 24.8929 192.39 21.7643 192.39 17.9052C192.39 14.0461 189.262 10.9175 185.402 10.9175Z" fill="#98C11D"/>
<path d="M185.824 14.6528V21.1577H184.984V14.6528H185.824Z" fill="#434248"/>
<path d="M201.139 12.2543C204.255 12.2543 206.79 14.7894 206.79 17.9052C206.79 21.021 204.255 23.5561 201.139 23.5561C198.023 23.5561 195.489 21.021 195.489 17.9052C195.489 14.7894 198.023 12.2543 201.139 12.2543ZM201.139 10.9175C197.28 10.9175 194.152 14.0461 194.152 17.9052C194.152 21.7643 197.28 24.8929 201.139 24.8929C204.998 24.8929 208.126 21.7643 208.126 17.9052C208.126 14.0461 204.998 10.9175 201.139 10.9175Z" fill="#98C11D"/>
<path d="M199.863 14.6528H200.703V20.4529H203.482V21.1572H199.863V14.6528H199.863Z" fill="#434248"/>
<path d="M216.873 12.2543C219.988 12.2543 222.523 14.7894 222.523 17.9052C222.523 21.021 219.988 23.5561 216.873 23.5561C213.757 23.5561 211.222 21.021 211.222 17.9052C211.222 14.7894 213.757 12.2543 216.873 12.2543ZM216.873 10.9175C213.014 10.9175 209.885 14.0461 209.885 17.9052C209.885 21.7643 213.014 24.8929 216.873 24.8929C220.732 24.8929 223.86 21.7643 223.86 17.9052C223.86 14.0461 220.732 10.9175 216.873 10.9175Z" fill="#98C11D"/>
<path d="M216.383 21.1577V18.3975L214.328 14.6528H215.283L216.2 16.4479C216.451 16.9398 216.644 17.3355 216.847 17.7895H216.866C217.05 17.3649 217.271 16.9404 217.523 16.4479L218.459 14.6528H219.415L217.233 18.3878V21.1577H216.383Z" fill="#434248"/>
<path d="M8.86629 8.59277C10.9982 8.59277 12.681 9.14086 13.9135 10.2365C15.146 11.3327 15.762 12.7679 15.762 14.5415C15.762 16.3243 15.146 17.7573 13.9135 18.8401C12.681 19.9235 10.9982 20.4651 8.86629 20.4651H5.71894V24.5974L7.71451 24.9814V27.2202H0.00012207V24.9814L1.98286 24.5974V11.2284L0.00012207 10.8445V8.59277H1.98286H8.86629ZM5.71894 17.5867H8.86629C9.90685 17.5867 10.6934 17.3033 11.2271 16.736C11.7602 16.1687 12.0265 15.4463 12.0265 14.5677C12.0265 13.6721 11.7597 12.932 11.2271 12.3481C10.694 11.7637 9.90685 11.4717 8.86629 11.4717H5.71894V17.5867Z" fill="#434248"/>
<path d="M34.7366 18.046C34.7366 20.7752 33.9564 23.0312 32.3956 24.814C30.8347 26.5967 28.7921 27.4876 26.2677 27.4876C23.7513 27.4876 21.7199 26.5962 20.1714 24.814C18.6233 23.0317 17.8496 20.7758 17.8496 18.046V17.7648C17.8496 15.0527 18.6212 12.801 20.1655 11.0097C21.7092 9.21836 23.739 8.32324 26.2554 8.32324C28.7798 8.32324 30.8246 9.2189 32.3902 11.0097C33.9553 12.801 34.7376 15.0527 34.7376 17.7648V18.046H34.7366ZM31.0139 17.7391C31.0139 15.812 30.6128 14.2463 29.8113 13.0437C29.0092 11.8412 27.8237 11.2396 26.2549 11.2396C24.6855 11.2396 23.515 11.8369 22.7434 13.0309C21.9712 14.2249 21.5852 15.7943 21.5852 17.7391V18.046C21.5852 20.0079 21.9755 21.588 22.7557 22.7863C23.5363 23.9846 24.7068 24.5835 26.2677 24.5835C27.8456 24.5835 29.0311 23.9841 29.8241 22.7863C30.6171 21.588 31.0139 20.0079 31.0139 18.046V17.7391Z" fill="#434248"/>
<path d="M51.971 8.5918V13.5556H49.1055L48.952 11.4702H45.5234V24.5965L47.519 24.9804V27.2193H39.7918V24.9804L41.7873 24.5965V11.4702H38.3715L38.2181 13.5556H35.3654V8.5918H51.971Z" fill="#434248"/>
<path d="M70.5487 8.5918V13.5556H67.6832L67.5297 11.4702H64.1011V24.5965L66.0967 24.9804V27.2193H58.3689V24.9804L60.3645 24.5965V11.4702H56.9487L56.7952 13.5556H53.9425V8.5918H70.5487Z" fill="#434248"/>
<path d="M84.5482 19.0311H78.2412V24.3532H84.2541L84.4204 22.1271H87.2609V27.2187H72.5229V24.9799L74.5057 24.5959V11.2274L72.5229 10.8435V8.5918H74.5057H87.2352V13.6962H84.3696L84.2033 11.4702H78.2418V16.1527H84.5488V19.0311H84.5482Z" fill="#434248"/>
<path d="M109.265 2.13887C117.959 2.13887 125.031 9.21107 125.031 17.9045C125.031 26.598 117.958 33.6702 109.265 33.6702C100.572 33.6702 93.4995 26.598 93.4995 17.9045C93.4995 9.21107 100.572 2.13887 109.265 2.13887ZM109.265 0C99.3766 0 91.3606 8.01597 91.3606 17.9045C91.3606 27.7931 99.3766 35.809 109.265 35.809C119.154 35.809 127.17 27.7931 127.17 17.9045C127.17 8.01597 119.153 0 109.265 0Z" fill="#F59F19"/>
<path d="M109.237 8.72021C111.352 8.72021 113.011 9.20414 114.213 10.1725C115.416 11.1404 116.017 12.4777 116.017 14.1829C116.017 15.1213 115.766 15.9357 115.262 16.6266C114.759 17.3174 114.021 17.8762 113.049 18.3024C114.15 18.6264 114.941 19.1659 115.422 19.921C115.904 20.6755 116.145 21.6117 116.145 22.7288V23.6758C116.145 24.0854 116.226 24.403 116.389 24.6292C116.551 24.8548 116.819 24.9896 117.194 25.0318L117.655 25.096V27.3477H115.723C114.503 27.3477 113.646 27.0194 113.151 26.3627C112.657 25.7061 112.409 24.8575 112.409 23.8169V22.755C112.409 21.8513 112.168 21.1407 111.686 20.6247C111.204 20.1087 110.524 19.8381 109.646 19.8124H106.588V24.7254L108.584 25.1093V27.3482H100.869V25.1093L102.852 24.7254V11.3558L100.869 10.9719V8.72021H102.852H109.237ZM106.588 16.9335H109.172C110.213 16.9335 110.993 16.7116 111.513 16.2683C112.034 15.825 112.294 15.1855 112.294 14.3492C112.294 13.5134 112.036 12.8456 111.519 12.3472C111.003 11.8478 110.242 11.5986 109.236 11.5986H106.587V16.9335H106.588Z" fill="#434248"/>
<path d="M93.5856 33.9713C94.8235 33.7082 95.4486 34.5317 95.5047 35.5888C95.6234 38.264 91.3596 43.6149 86.8834 49.292C84.2259 52.6704 80.6593 56.8043 78.09 60.3318C76.0233 64.3722 74.8662 66.8688 73.5117 70.0258C74.0272 69.8038 74.9811 69.2627 75.6661 68.7799C76.3511 68.2975 77.3248 67.5842 78.3488 66.579C79.3733 65.5732 80.3936 64.2877 80.9138 63.5578C81.0833 63.2969 81.4764 62.7637 81.6726 62.8905C81.8683 63.0172 81.4753 63.5514 81.348 63.7471C80.755 64.6609 79.5958 66.0892 78.4327 67.2356C77.12 68.4719 75.5463 69.5376 74.6036 70.1316C74.0571 70.4728 73.6299 70.8449 73.4406 71.2791C73.1786 71.8973 73.1396 72.2432 73.0535 73.1619C72.7867 76.144 71.9028 80.7201 70.705 84.3509C69.6233 87.7314 67.964 91.5722 66.1535 93.6454C65.4835 94.4624 64.7445 94.9576 64.0221 94.9982C63.2991 95.0394 62.7313 94.4849 62.7259 93.1358C62.7003 90.1028 64.9798 83.0921 67.6919 77.0589C69.6366 72.7068 72.2054 67.3222 74.5229 62.6103L74.4576 62.568C73.9149 63.1899 72.9171 64.5839 72.1429 65.7042C71.8766 66.0416 71.7268 66.1303 71.5964 66.0453C71.4659 65.9608 71.5392 65.7764 71.7937 65.3849C72.8225 63.8728 74.3748 61.9109 75.3645 60.7441C77.1462 57.2144 78.6113 54.3152 79.7722 52.0988C82.8875 46.373 87.2428 39.596 89.564 37.0213C90.704 35.7663 92.0253 34.3039 93.5327 33.9836L93.5856 33.9713ZM67.8897 82.7553C66.685 85.824 64.9787 90.2376 64.5408 92.4134C64.3664 93.1817 64.5114 93.6004 64.8151 93.7047C65.1723 93.7972 65.5156 93.556 66.0578 92.9342C67.2283 91.5605 68.8527 88.3463 70.2783 83.9359C71.5803 80.002 72.4503 74.303 72.6583 71.8401C70.151 76.9851 69.9115 77.7113 67.8897 82.7553ZM86.3268 48.7915C90.5104 43.0642 94.4203 37.9009 94.1326 35.4867C94.0492 34.8295 93.6573 34.575 93.0653 34.7006C92.2039 34.884 91.1409 36.2347 90.1853 37.5635C88.7641 39.6094 86.9016 42.7621 84.8119 46.6944C81.8239 52.2244 80.8561 54.2868 78.7611 58.7272C82.8832 53.2367 84.3622 51.4598 86.3268 48.7915Z" fill="#434248"/>
<path d="M82.6085 63.5928C82.3005 63.996 82.1075 64.1495 81.977 64.065C81.8348 63.9254 82.0471 63.5998 82.2166 63.3388C82.5133 62.8822 83.1411 62.1293 83.5993 61.6379C84.1961 61.0048 84.8468 60.3599 85.8516 59.5279C87.2408 58.3889 88.784 57.4425 90.0101 57.1249C90.3871 57.0447 90.818 56.9532 90.864 57.1687C90.8865 57.2767 90.725 57.3115 90.3405 57.6173C89.1743 58.4841 88.2926 59.6284 87.0943 61.4026C85.8644 63.295 84.857 65.7034 84.9789 66.8027C85.0393 67.3524 85.3345 67.684 85.9264 67.5583C87.1108 67.3065 88.9551 65.3948 90.2352 63.21C90.1748 62.6603 90.2181 61.8074 90.7234 60.7433C91.1442 59.8108 91.8057 59.2188 92.1484 58.9777C92.2297 58.5659 92.104 57.974 92.0474 57.705C91.9217 57.1131 91.672 56.9976 91.8105 56.8554C92.0025 56.7014 92.3719 56.8484 92.6329 57.0179C93.1548 57.3575 93.6152 57.9344 93.6793 58.7649C93.7922 60.091 92.8863 61.916 91.5372 63.7778C91.7757 63.8388 92.3559 63.6597 92.5602 63.5607C93.0216 63.3495 93.5563 62.9549 94.1959 62.2566C94.7926 61.6229 95.1434 61.155 95.6214 60.4909C96.0139 59.9573 96.2262 59.6311 96.4219 59.7578C96.6176 59.8846 96.3636 60.2765 95.9284 60.8754C95.5353 61.409 95.0995 62.0079 94.5028 62.6416C93.7676 63.4164 93.1783 63.8233 92.6634 64.0452C92.2019 64.2564 91.556 64.3933 91.187 64.2463C90.0165 65.6205 87.8177 67.7198 85.6104 68.1887C83.9421 68.5433 82.7475 67.9535 82.4695 66.3803C82.2946 65.2927 82.6657 63.8634 83.4603 62.5688L83.3951 62.5266C83.0865 62.9282 82.917 63.1897 82.6085 63.5928Z" fill="#434248"/>
<path d="M97.3574 60.4571C97.0494 60.8603 96.8564 61.0137 96.7259 60.9292C96.5837 60.7897 96.796 60.464 96.9655 60.2031C97.2622 59.7464 97.89 58.9936 98.3482 58.5022C98.945 57.869 99.5957 57.2242 100.6 56.3922C101.99 55.2532 103.532 54.3068 104.76 53.9891C105.137 53.9089 105.567 53.8175 105.613 54.033C105.636 54.141 105.474 54.1757 105.089 54.4816C103.923 55.3484 103.041 56.4927 101.843 58.2669C100.614 60.1593 99.6059 62.5676 99.7278 63.667C99.7882 64.2167 100.083 64.5482 100.676 64.4226C101.86 64.1707 103.704 62.2591 104.984 60.0742C104.924 59.5245 104.967 58.6717 105.472 57.6076C105.893 56.675 106.555 56.0831 106.897 55.8419C106.979 55.4302 106.853 54.8383 106.796 54.5693C106.671 53.9774 106.421 53.8613 106.559 53.7196C106.752 53.5656 107.121 53.7127 107.382 53.8822C107.904 54.2217 108.364 54.7987 108.428 55.6291C108.541 56.9552 107.635 58.7802 106.287 60.6421C106.524 60.7031 107.105 60.5239 107.309 60.425C107.771 60.2133 108.305 59.8192 108.945 59.1208C109.542 58.4872 109.892 58.0193 110.37 57.3552C110.763 56.821 110.975 56.4954 111.171 56.6221C111.367 56.7488 111.113 57.1408 110.677 57.7396C110.284 58.2733 109.848 58.8722 109.252 59.5058C108.516 60.2806 107.928 60.6876 107.412 60.9095C106.951 61.1207 106.305 61.2576 105.936 61.1105C104.765 62.4847 102.567 64.584 100.359 65.053C98.691 65.4075 97.4964 64.8172 97.2184 63.2446C97.0441 62.157 97.4146 60.7277 98.2092 59.4331L98.144 59.3909C97.8355 59.793 97.6659 60.0539 97.3574 60.4571Z" fill="#434248"/>
<path d="M120.314 50.6826C121.371 50.627 121.931 51.4087 121.887 52.2611L121.941 52.2498C123.095 49.4736 124.919 45.8787 126.989 42.1196C128.404 39.5118 130.119 36.728 131.977 34.0828C132.443 33.3652 133.02 32.9053 133.774 32.7449C134.312 32.6305 134.562 32.746 134.661 32.9492C133.505 34.6581 131.442 38.191 129.943 40.9293C128.601 43.3521 127.24 45.9487 124.965 50.5954C123.753 53.1027 122.114 56.7714 121.812 57.7355C121.572 58.4617 121.664 58.8927 121.914 59.0082C122.229 59.1664 122.721 58.8365 123.106 58.5296C123.586 58.1457 124.461 57.2286 125.173 56.3458C126.109 55.1908 126.81 54.254 127.288 53.5899C127.554 53.2519 127.766 52.9257 127.961 53.053C128.157 53.1797 127.945 53.5059 127.467 54.1706C126.905 54.9651 125.853 56.3699 125.002 57.3949C124.109 58.4852 122.607 60.1546 120.83 60.5321C119.807 60.7492 119.22 60.3679 119.029 59.7332C118.849 59.1525 119.012 58.3307 119.371 57.635L119.306 57.5928C118.169 59.1285 116.07 61.4315 114.048 61.9732C112.875 62.279 111.534 62.0571 111.383 60.2899C111.32 59.4589 111.567 58.5066 112.296 57.1698L112.23 57.1275C112.103 57.3233 111.934 57.5842 111.668 57.9221C111.487 58.1296 111.348 58.2713 111.218 58.1863C111.075 58.0478 111.361 57.5377 111.838 56.8736C111.965 56.6779 112.636 55.8597 113.094 55.3683C113.552 54.8775 114.287 54.1021 115.25 53.3348C116.929 51.9648 118.761 50.7885 120.314 50.6826ZM115.982 55.7111C114.232 58.3328 113.614 59.9268 113.871 60.6043C114.005 60.9695 114.308 61.0732 114.685 60.9936C115.708 60.7759 117.502 59.1573 118.669 57.5029C120.072 55.6293 121.517 52.9022 121.388 52.0301C121.293 51.3194 120.805 51.1414 120.213 51.267C119.136 51.4959 117.508 53.3615 115.982 55.7111Z" fill="#434248"/>
<path d="M135.29 54.7018C136.603 53.4666 137.528 52.2576 138.271 51.2556C138.495 50.9829 138.706 50.6567 138.902 50.7834C139.033 50.8679 138.887 51.2368 138.493 51.771C138.058 52.3694 137.218 53.4484 136.205 54.5077C135.193 55.5665 134.134 56.4108 133.203 57.0583C132.326 57.6952 130.502 58.6459 128.888 58.9887C126.035 59.5956 125.076 57.9984 124.972 56.445C124.855 54.8382 125.819 53.2827 127.122 53.0629C127.887 52.9565 128.378 53.4142 128.396 54.0291C128.403 54.5906 128.118 55.1013 127.498 55.6269C127.07 55.999 126.497 56.7396 126.602 57.5048C126.732 58.378 127.481 58.725 128.45 58.5192C129.527 58.2903 130.689 57.1428 131.439 54.8457C132.076 53.0784 132.359 49.6428 132.802 48.8172L132.791 48.7627C132.367 49.4156 131.42 50.5171 130.641 51.3582C130.003 52.0571 129.255 52.7779 128.87 53.0848C128.678 53.2378 128.485 53.3912 128.344 53.2527C128.255 53.1025 128.286 52.9838 128.521 52.7651C128.991 52.3277 129.738 51.6063 130.462 50.777C131.282 49.8712 132.079 48.8579 133.089 47.5179C133.151 47.2799 133.436 46.7687 133.755 46.4196C134.256 45.8629 134.814 45.5752 135.191 45.495C136.428 45.232 135.77 46.1035 135.162 46.6832C134.746 47.1093 134.253 47.4387 134.041 47.7649C133.702 48.2873 133.848 48.7066 133.974 49.2985C134.347 50.7946 134.753 52.171 134.427 53.8153C134.264 54.6377 133.728 55.8205 133.174 56.3883C133.72 56.0477 134.544 55.4232 135.29 54.7018Z" fill="#434248"/>
<path d="M46.6511 92.0657C46.6511 92.0657 76.6515 77.0476 108.5 67.3793C128.944 61.7915 144.372 58.3137 166.348 54.2958C166.705 54.2065 138.249 60.9124 119.641 65.9532C87.7667 74.5878 46.6511 92.0657 46.6511 92.0657Z" fill="#434248"/>
</svg>
