<svg width="30" height="30" viewBox="0 0 30 30" fill="none" xmlns="http://www.w3.org/2000/svg">
<path d="M19.4738 14.9999C19.4738 17.4749 17.4738 19.4749 14.9988 19.4749C12.5238 19.4749 10.5238 17.4749 10.5238 14.9999C10.5238 12.5249 12.5238 10.5249 14.9988 10.5249C17.4738 10.5249 19.4738 12.5249 19.4738 14.9999Z" stroke="white" stroke-width="2" stroke-linecap="round" stroke-linejoin="round"/>
<path d="M14.9998 25.3379C19.4123 25.3379 23.5248 22.7379 26.3873 18.2379C27.5123 16.4754 27.5123 13.5129 26.3873 11.7504C23.5248 7.25039 19.4123 4.65039 14.9998 4.65039C10.5873 4.65039 6.4748 7.25039 3.6123 11.7504C2.4873 13.5129 2.4873 16.4754 3.6123 18.2379C6.4748 22.7379 10.5873 25.3379 14.9998 25.3379Z" stroke="white" stroke-width="2" stroke-linecap="round" stroke-linejoin="round"/>
</svg>
