<svg width="49" height="53" viewBox="0 0 49 53" fill="none" xmlns="http://www.w3.org/2000/svg">
<path d="M24.4092 21.8187C24.2084 21.7987 23.9676 21.7987 23.7468 21.8187C18.9695 21.6582 15.1759 17.744 15.1759 12.9267C15.1558 8.00893 19.1502 4.01453 24.0679 4.01453C28.9857 4.01453 32.9801 8.00893 32.9801 12.9267C32.9801 17.744 29.1663 21.6582 24.4092 21.8187Z" stroke="#434248" stroke-width="3" stroke-linecap="round" stroke-linejoin="round"/>
<path d="M24.0656 43.778C20.4124 43.778 16.7793 42.8547 14.0093 41.008C9.15183 37.7563 9.15183 32.4572 14.0093 29.2256C18.5863 26.1631 25.5922 25.64 30.999 27.6562" stroke="#434248" stroke-width="3" stroke-linecap="round" stroke-linejoin="round"/>
<path d="M34.4521 42.6848C37.5161 42.6848 40 40.2929 40 37.3424C40 34.3919 37.5161 32 34.4521 32C31.3882 32 28.9043 34.3919 28.9043 37.3424C28.9043 40.2929 31.3882 42.6848 34.4521 42.6848Z" stroke="#434248" stroke-width="3" stroke-linecap="round" stroke-linejoin="round"/>
<path d="M30.7699 41.5132L30.7617 49.417C30.7617 50.3809 31.2795 50.8521 31.9206 50.4558L34.1233 49.0957C34.3041 48.9779 34.6082 48.9779 34.789 49.0957L37 50.4558C37.6328 50.8414 38.1589 50.3809 38.1589 49.417V41.3204" stroke="#434248" stroke-width="3" stroke-linecap="round" stroke-linejoin="round"/>
</svg>
