<svg width="52" height="52" viewBox="0 0 52 52" fill="none" xmlns="http://www.w3.org/2000/svg">
<path d="M6.5 30.3334C8.29833 31.7244 11.0002 32.5369 14.0833 32.5001C17.1665 32.5369 19.8683 31.7244 21.6667 30.3334C23.465 28.9424 26.1668 28.1299 29.25 28.1667C32.3332 28.1299 35.035 28.9424 36.8333 30.3334" stroke="#434248" stroke-width="3" stroke-linecap="round" stroke-linejoin="round"/>
<path d="M17.3338 6.5C16.6481 6.9922 16.0925 7.64394 15.715 8.39892C15.3375 9.1539 15.1495 9.98942 15.1672 10.8333C15.1495 11.6772 15.3375 12.5128 15.715 13.2677C16.0925 14.0227 16.6481 14.6745 17.3338 15.1667" stroke="#434248" stroke-width="3" stroke-linecap="round" stroke-linejoin="round"/>
<path d="M25.9998 6.5C25.3141 6.9922 24.7585 7.64394 24.381 8.39892C24.0035 9.1539 23.8155 9.98942 23.8332 10.8333C23.8155 11.6772 24.0035 12.5128 24.381 13.2677C24.7585 14.0227 25.3141 14.6745 25.9998 15.1667" stroke="#434248" stroke-width="3" stroke-linecap="round" stroke-linejoin="round"/>
<path d="M6.5 21.6667H36.8333V32.5001C36.8333 35.9479 35.4637 39.2545 33.0257 41.6925C30.5877 44.1304 27.2811 45.5001 23.8333 45.5001H19.5C16.0522 45.5001 12.7456 44.1304 10.3076 41.6925C7.86964 39.2545 6.5 35.9479 6.5 32.5001V21.6667Z" stroke="#434248" stroke-width="3" stroke-linecap="round" stroke-linejoin="round"/>
<path d="M36.2822 36.2397C37.2499 36.6839 38.3118 36.8836 39.3747 36.8212C40.4376 36.7589 41.4689 36.4364 42.3779 35.8821C43.287 35.3278 44.046 34.5587 44.5882 33.6424C45.1303 32.7261 45.4391 31.6906 45.4874 30.627C45.5356 29.5633 45.3219 28.5042 44.8649 27.5425C44.4079 26.5808 43.7217 25.7462 42.8665 25.1119C42.0114 24.4775 41.0135 24.063 39.9606 23.9047C38.9078 23.7463 37.8321 23.8491 36.8282 24.2038" stroke="#434248" stroke-width="3" stroke-linecap="round" stroke-linejoin="round"/>
</svg>
