<svg width="54" height="33" viewBox="0 0 54 33" fill="none" xmlns="http://www.w3.org/2000/svg">
<rect x="2" y="2" width="50" height="6.52174" rx="3.26087" stroke="#434248" stroke-width="3"/>
<path d="M37.3878 20.6656H41.1079C42.6578 20.6656 43.9143 19.4092 43.9143 17.8592V17.8592C43.9143 16.3093 42.6578 15.0529 41.1079 15.0529H33.6677C32.1178 15.0529 30.8613 16.3093 30.8613 17.8592V17.8592C30.8613 19.4092 32.1178 20.6656 33.6677 20.6656H37.3878ZM37.3878 20.6656V31.2385" stroke="#434248" stroke-width="3"/>
<path d="M16.6105 20.6656H20.3306C21.8805 20.6656 23.137 19.4092 23.137 17.8592V17.8592C23.137 16.3093 21.8805 15.0529 20.3306 15.0529H12.8904C11.3404 15.0529 10.084 16.3093 10.084 17.8592V17.8592C10.084 19.4092 11.3404 20.6656 12.8904 20.6656H16.6105ZM16.6105 20.6656V31.2385" stroke="#434248" stroke-width="3"/>
<path d="M49.8166 31.3478V8.52173H4.18341V31.3478M49.8166 31.3478H4.18341M49.8166 31.3478H52M4.18341 31.3478H2" stroke="#434248" stroke-width="3" stroke-linecap="round"/>
</svg>
