<svg width="45" height="45" viewBox="0 0 45 45" fill="none" xmlns="http://www.w3.org/2000/svg">
<path d="M22.4998 26.25H24.3748C26.4373 26.25 28.1248 24.5625 28.1248 22.5V3.75H11.2498C8.43729 3.75 5.98105 5.30623 4.70605 7.59373" stroke="#434248" stroke-width="3" stroke-linecap="round" stroke-linejoin="round"/>
<path d="M3.75 31.875C3.75 34.9875 6.2625 37.5 9.375 37.5H11.25C11.25 35.4375 12.9375 33.75 15 33.75C17.0625 33.75 18.75 35.4375 18.75 37.5H26.25C26.25 35.4375 27.9375 33.75 30 33.75C32.0625 33.75 33.75 35.4375 33.75 37.5H35.625C38.7375 37.5 41.25 34.9875 41.25 31.875V26.25H35.625C34.5937 26.25 33.75 25.4063 33.75 24.375V18.75C33.75 17.7187 34.5937 16.875 35.625 16.875H38.0437L34.8375 11.2688C34.1625 10.1063 32.9251 9.375 31.5751 9.375H28.125V22.5C28.125 24.5625 26.4375 26.25 24.375 26.25H22.5" stroke="#434248" stroke-width="3" stroke-linecap="round" stroke-linejoin="round"/>
<path d="M15 41.25C17.0711 41.25 18.75 39.5711 18.75 37.5C18.75 35.4289 17.0711 33.75 15 33.75C12.9289 33.75 11.25 35.4289 11.25 37.5C11.25 39.5711 12.9289 41.25 15 41.25Z" stroke="#434248" stroke-width="3" stroke-linecap="round" stroke-linejoin="round"/>
<path d="M30 41.25C32.0711 41.25 33.75 39.5711 33.75 37.5C33.75 35.4289 32.0711 33.75 30 33.75C27.9289 33.75 26.25 35.4289 26.25 37.5C26.25 39.5711 27.9289 41.25 30 41.25Z" stroke="#434248" stroke-width="3" stroke-linecap="round" stroke-linejoin="round"/>
<path d="M41.25 22.5V26.25H35.625C34.5937 26.25 33.75 25.4063 33.75 24.375V18.75C33.75 17.7187 34.5937 16.875 35.625 16.875H38.0437L41.25 22.5Z" stroke="#434248" stroke-width="3" stroke-linecap="round" stroke-linejoin="round"/>
<path d="M3.75 15H15" stroke="#434248" stroke-width="3" stroke-linecap="round" stroke-linejoin="round"/>
<path d="M3.75 20.625H11.25" stroke="#434248" stroke-width="3" stroke-linecap="round" stroke-linejoin="round"/>
<path d="M3.75 26.25H7.5" stroke="#434248" stroke-width="3" stroke-linecap="round" stroke-linejoin="round"/>
</svg>
