<svg width="41" height="43" viewBox="0 0 41 43" fill="none" xmlns="http://www.w3.org/2000/svg">
<path d="M13.8312 36.0188L12.7505 37.059L12.7505 37.059L13.8312 36.0188ZM13.8151 36.0021L12.7401 37.0482L13.8151 36.0021ZM12.3643 35.3848L12.3726 33.8848L12.3643 35.3848ZM28.359 35.3848L28.3507 33.8848L28.359 35.3848ZM26.8921 36.0188L25.8113 34.9786H25.8113L26.8921 36.0188ZM26.9082 36.0021L27.9831 37.0482L26.9082 36.0021ZM26.2413 36.6949L27.3221 37.7351L26.2413 36.6949ZM14.4819 36.6949L15.5627 35.6546H15.5627L14.4819 36.6949ZM20.3616 41V42.5V41ZM2.00059 25.294L0.500681 25.3102L2.00059 25.294ZM12.0908 35.3842L12.0746 36.8841L12.0908 35.3842ZM38.7227 25.294L40.2226 25.3102L38.7227 25.294ZM28.6324 35.3842L28.6486 36.8841L28.6324 35.3842ZM33.4111 3.24779L32.6923 4.56431L33.4111 3.24779ZM37.4755 7.31213L36.159 8.031L37.4755 7.31213ZM7.31213 3.24779L8.031 4.56431L7.31213 3.24779ZM3.24779 7.31213L4.56431 8.031L3.24779 7.31213ZM6.63066 33.731L5.81057 34.987L6.63066 33.731ZM34.0926 33.731L34.9127 34.987L34.0926 33.731ZM27.0224 14.2411C27.0224 17.9197 24.0402 20.9018 20.3616 20.9018V23.9018C25.6971 23.9018 30.0224 19.5766 30.0224 14.2411H27.0224ZM20.3616 20.9018C16.683 20.9018 13.7009 17.9197 13.7009 14.2411H10.7009C10.7009 19.5766 15.0262 23.9018 20.3616 23.9018V20.9018ZM13.7009 14.2411C13.7009 10.5625 16.683 7.58036 20.3616 7.58036V4.58036C15.0262 4.58036 10.7009 8.90562 10.7009 14.2411H13.7009ZM20.3616 7.58036C24.0402 7.58036 27.0224 10.5625 27.0224 14.2411H30.0224C30.0224 8.90562 25.6971 4.58036 20.3616 4.58036V7.58036ZM18.6924 3.5H22.0309V0.5H18.6924V3.5ZM37.2233 18.6924V25.0437H40.2233V18.6924H37.2233ZM3.5 25.0437V18.6924H0.5V25.0437H3.5ZM25.8113 34.9786L25.1606 35.6547L27.3221 37.7351L27.9728 37.059L25.8113 34.9786ZM15.5627 35.6546L14.9119 34.9786L12.7505 37.059L13.4012 37.7351L15.5627 35.6546ZM14.9119 34.9786C14.9051 34.9715 14.8976 34.9637 14.89 34.9559L12.7401 37.0482C12.7399 37.048 12.7402 37.0483 12.7419 37.05C12.7437 37.052 12.7461 37.0545 12.7505 37.059L14.9119 34.9786ZM12.3411 36.8848C12.3472 36.8848 12.3507 36.8848 12.3533 36.8848C12.3557 36.8848 12.3562 36.8848 12.356 36.8848L12.3726 33.8848C12.3618 33.8848 12.3511 33.8848 12.3411 33.8848V36.8848ZM14.89 34.9559C14.2283 34.276 13.3214 33.8901 12.3726 33.8848L12.356 36.8848C12.5008 36.8856 12.6391 36.9445 12.7401 37.0482L14.89 34.9559ZM28.3822 33.8848C28.3721 33.8848 28.3614 33.8848 28.3507 33.8848L28.3673 36.8848C28.3671 36.8848 28.3676 36.8848 28.3699 36.8848C28.3726 36.8848 28.376 36.8848 28.3822 36.8848V33.8848ZM27.9728 37.059C27.977 37.0546 27.9794 37.0521 27.9812 37.0503C27.982 37.0494 27.9825 37.0489 27.9827 37.0486C27.983 37.0484 27.9831 37.0483 27.9831 37.0482L25.8332 34.9559C25.8258 34.9635 25.8186 34.971 25.8113 34.9786L27.9728 37.059ZM28.3507 33.8848C27.4019 33.8901 26.4949 34.276 25.8332 34.9559L27.9831 37.0482C28.0841 36.9445 28.2225 36.8856 28.3673 36.8848L28.3507 33.8848ZM25.1606 35.6547C23.7494 37.1209 22.795 38.1077 21.9863 38.747C21.2118 39.3593 20.7555 39.5 20.3616 39.5L20.3616 42.5C21.7037 42.5 22.8061 41.9231 23.8468 41.1004C24.8534 40.3047 25.9708 39.1389 27.3221 37.7351L25.1606 35.6547ZM13.4012 37.7351C14.7524 39.1389 15.8699 40.3047 16.8765 41.1004C17.9172 41.9231 19.0195 42.5 20.3616 42.5L20.3616 39.5C19.9677 39.5 19.5115 39.3593 18.737 38.747C17.9283 38.1077 16.9739 37.1209 15.5627 35.6546L13.4012 37.7351ZM0.5 25.0437C0.5 25.1699 0.499978 25.245 0.500681 25.3102L3.50051 25.2778C3.50002 25.2329 3.5 25.1778 3.5 25.0437H0.5ZM12.3411 33.8848C12.207 33.8848 12.1519 33.8848 12.107 33.8843L12.0746 36.8841C12.1398 36.8848 12.2149 36.8848 12.3411 36.8848V33.8848ZM37.2233 25.0437C37.2233 25.1777 37.2232 25.2329 37.2228 25.2778L40.2226 25.3102C40.2233 25.245 40.2233 25.17 40.2233 25.0437H37.2233ZM28.3822 36.8848C28.5084 36.8848 28.5834 36.8848 28.6486 36.8841L28.6163 33.8843C28.5714 33.8848 28.5163 33.8848 28.3822 33.8848V36.8848ZM22.0309 3.5C25.0889 3.5 27.2867 3.50131 29.0085 3.65038C30.7111 3.7978 31.8074 4.08113 32.6923 4.56431L34.13 1.93127C32.7297 1.16666 31.1676 0.826098 29.2672 0.661564C27.386 0.498689 25.0363 0.5 22.0309 0.5V3.5ZM40.2233 18.6924C40.2233 15.687 40.2246 13.3372 40.0617 11.456C39.8972 9.55566 39.5566 7.99353 38.792 6.59325L36.159 8.031C36.6421 8.91588 36.9255 10.0122 37.0729 11.7148C37.222 13.4366 37.2233 15.6344 37.2233 18.6924H40.2233ZM32.6923 4.56431C34.1562 5.36369 35.3596 6.56703 36.159 8.031L38.792 6.59325C37.717 4.62452 36.0987 3.00628 34.13 1.93127L32.6923 4.56431ZM18.6924 0.5C15.687 0.5 13.3372 0.498689 11.456 0.661564C9.55566 0.826098 7.99353 1.16666 6.59325 1.93127L8.031 4.56431C8.91588 4.08113 10.0122 3.7978 11.7148 3.65038C13.4366 3.50131 15.6344 3.5 18.6924 3.5V0.5ZM3.5 18.6924C3.5 15.6344 3.50131 13.4366 3.65038 11.7148C3.7978 10.0122 4.08113 8.91588 4.56431 8.031L1.93127 6.59325C1.16666 7.99353 0.826098 9.55566 0.661564 11.456C0.498689 13.3372 0.5 15.687 0.5 18.6924H3.5ZM6.59325 1.93127C4.62452 3.00628 3.00628 4.62452 1.93127 6.59325L4.56431 8.031C5.36369 6.56704 6.56703 5.36369 8.031 4.56431L6.59325 1.93127ZM14.2411 30.0224H26.4822V27.0224H14.2411V30.0224ZM14.2411 27.0224C10.1357 27.0224 6.63191 29.5826 5.23232 33.1882L8.02901 34.2738C8.99565 31.7836 11.4145 30.0224 14.2411 30.0224V27.0224ZM0.500681 25.3102C0.544442 29.3649 2.64908 32.9227 5.81057 34.987L7.45075 32.475C5.09362 30.9359 3.53302 28.2905 3.50051 25.2778L0.500681 25.3102ZM5.81057 34.987C7.61535 36.1654 9.7666 36.8592 12.0746 36.8841L12.107 33.8843C10.3871 33.8657 8.79117 33.3503 7.45075 32.475L5.81057 34.987ZM26.4822 30.0224C29.3087 30.0224 31.7276 31.7836 32.6943 34.2738L35.4909 33.1882C34.0914 29.5826 30.5876 27.0224 26.4822 27.0224V30.0224ZM37.2228 25.2778C37.1902 28.2905 35.6296 30.9359 33.2725 32.475L34.9127 34.987C38.0742 32.9227 40.1788 29.3649 40.2226 25.3102L37.2228 25.2778ZM33.2725 32.475C31.9321 33.3503 30.3361 33.8657 28.6163 33.8843L28.6486 36.8841C30.9567 36.8592 33.1079 36.1654 34.9127 34.987L33.2725 32.475Z" fill="#434248"/>
</svg>
