<svg width="60" height="63" viewBox="0 0 60 63" fill="none" xmlns="http://www.w3.org/2000/svg">
<rect x="0.000732422" width="40" height="63" rx="5" fill="#6EEC91"/>
<path d="M48.8257 34.4062C48.0382 35.175 47.5882 36.2812 47.7007 37.4625C47.8695 39.4875 49.7257 40.9687 51.7507 40.9687H55.3132V43.2C55.3132 47.0812 52.1445 50.25 48.2632 50.25H26.7382C22.857 50.25 19.6882 47.0812 19.6882 43.2V30.5813C19.6882 26.7 22.857 23.5312 26.7382 23.5312H48.2632C52.1445 23.5312 55.3132 26.7 55.3132 30.5813V33.2813H51.5257C50.4757 33.2813 49.5195 33.6937 48.8257 34.4062Z" stroke="#434248" stroke-width="3" stroke-linecap="round" stroke-linejoin="round"/>
<path d="M19.6882 32.2692V23.7005C19.6882 21.4693 21.057 19.4817 23.1382 18.6942L38.0257 13.0692C40.3507 12.1879 42.8445 13.913 42.8445 16.4068V23.5317" stroke="#434248" stroke-width="3" stroke-linecap="round" stroke-linejoin="round"/>
<path d="M57.2985 35.1937V39.0563C57.2985 40.0875 56.4735 40.9312 55.4235 40.9687H51.7485C49.7235 40.9687 47.8673 39.4875 47.6985 37.4625C47.586 36.2812 48.036 35.175 48.8235 34.4062C49.5173 33.6937 50.4735 33.2812 51.5235 33.2812H55.4235C56.4735 33.3187 57.2985 34.1624 57.2985 35.1937Z" stroke="#434248" stroke-width="3" stroke-linecap="round" stroke-linejoin="round"/>
<path d="M28.1257 31.5H41.2507" stroke="#434248" stroke-width="3" stroke-linecap="round" stroke-linejoin="round"/>
</svg>
