<svg width="35" height="35" viewBox="0 0 35 35" fill="none" xmlns="http://www.w3.org/2000/svg">
<path d="M17.7341 15.8521C17.5883 15.8375 17.4133 15.8375 17.2528 15.8521C13.782 15.7354 11.0258 12.8917 11.0258 9.39169C11.0258 5.81877 13.9133 2.91669 17.5008 2.91669C21.0737 2.91669 23.9758 5.81877 23.9758 9.39169C23.9612 12.8917 21.2049 15.7354 17.7341 15.8521Z" stroke="#434248" stroke-width="2" stroke-linecap="round" stroke-linejoin="round"/>
<path d="M10.4427 21.2333C6.91348 23.5958 6.91348 27.4458 10.4427 29.7937C14.4531 32.4771 21.0302 32.4771 25.0406 29.7937C28.5697 27.4312 28.5697 23.5812 25.0406 21.2333C21.0447 18.5646 14.4677 18.5646 10.4427 21.2333Z" stroke="#434248" stroke-width="2" stroke-linecap="round" stroke-linejoin="round"/>
</svg>
